<svg width="84" height="84" viewBox="0 0 84 84" fill="none" xmlns="http://www.w3.org/2000/svg">
<path d="M77.82 46.4L74.77 48.11C72.57 49.35 65.87 53.11 57.07 53.11C55.65 53.11 54.21 53.01 52.81 52.82C49.93 52.42 47.21 51.49 44.87 50.5L34.97 65.17L23.85 57.67L32.66 44.61C31.24 44.03 29.85 43.59 28.6 43.45C24.98 43.04 18.76 45.65 15.91 47.7L13.07 49.74L5.23 38.86L8.07 36.81C12.5 33.62 22.01 29.2 30.09 30.11C33.72 30.52 37.17 31.84 40.28 33.3L50.62 17.97L61.74 25.47L52.58 39.05C53.32 39.27 54 39.42 54.64 39.51C60.41 40.31 65.14 38.11 68.2 36.39L71.25 34.68L77.82 46.38V46.4Z" fill="#CACACA"/>
</svg>
