<svg width="84" height="84" viewBox="0 0 84 84" fill="none" xmlns="http://www.w3.org/2000/svg">
<path d="M77.82 46.42L74.77 48.13C72.57 49.37 65.87 53.13 57.07 53.13C55.65 53.13 54.21 53.03 52.81 52.84C47.53 52.11 42.91 49.72 38.43 47.41C34.82 45.55 31.41 43.79 28.6 43.47C25.3 43.11 19.06 45.45 15.91 47.72L13.07 49.76L5.23 38.88L8.07 36.83C12.5 33.64 22.02 29.22 30.09 30.13C35.37 30.72 40.05 33.14 44.59 35.48C48.22 37.35 51.64 39.12 54.65 39.54C60.41 40.34 65.14 38.14 68.2 36.42L71.25 34.71L77.82 46.4V46.42Z" fill="#CACACA"/>
</svg>
