<svg width="405" height="405" viewBox="0 0 405 405" fill="none" xmlns="http://www.w3.org/2000/svg">
<g clip-path="url(#clip0_46_699)">
<path d="M138.667 394.667H53.3333C29.7685 394.667 10.6667 375.565 10.6667 352V53.3334C10.6667 29.7686 29.7685 10.6667 53.3333 10.6667H138.667V394.667Z" fill="black" fill-opacity="0.2"/>
<path d="M352 0H53.3333C23.9275 0 0 23.9168 0 53.3333V352C0 381.417 23.9275 405.333 53.3333 405.333H352C381.406 405.333 405.333 381.417 405.333 352V53.3333C405.333 23.9168 381.406 0 352 0ZM128 384H53.3333C35.6885 384 21.3333 369.645 21.3333 352V53.3333C21.3333 35.6885 35.6885 21.3333 53.3333 21.3333H128V384ZM384 352C384 369.645 369.645 384 352 384H149.333V21.3333H352C369.645 21.3333 384 35.6885 384 53.3333V352ZM53.3333 64H96C101.897 64 106.667 68.7701 106.667 74.6667C106.667 80.5632 101.897 85.3333 96 85.3333H53.3333C47.4368 85.3333 42.6667 80.5632 42.6667 74.6667C42.6667 68.7701 47.4368 64 53.3333 64ZM106.667 138.667C106.667 144.563 101.897 149.333 96 149.333H53.3333C47.4368 149.333 42.6667 144.563 42.6667 138.667C42.6667 132.77 47.4368 128 53.3333 128H96C101.897 128 106.667 132.77 106.667 138.667ZM106.667 202.667C106.667 208.563 101.897 213.333 96 213.333H53.3333C47.4368 213.333 42.6667 208.563 42.6667 202.667C42.6667 196.77 47.4368 192 53.3333 192H96C101.897 192 106.667 196.77 106.667 202.667Z" fill="#0F172A"/>
</g>
<defs>
<clipPath id="clip0_46_699">
<rect width="405" height="405" fill="white"/>
</clipPath>
</defs>
</svg>
