<svg width="50" height="50" viewBox="0 0 50 50" fill="none" xmlns="http://www.w3.org/2000/svg">
<path fill-rule="evenodd" clip-rule="evenodd" d="M10 5H26L26 45H10C7.23857 45 5 42.7614 5 40V10C5 7.23858 7.23857 5 10 5ZM40 5H30L30 45H40C42.7614 45 45 42.7614 45 40V10C45 7.23858 42.7614 5 40 5ZM40 0C45.5228 0 50 4.47715 50 10V40C50 45.5228 45.5228 50 40 50H10C4.47715 50 0 45.5228 0 40V10C0 4.47715 4.47715 0 10 0H40ZM34 16C32.8954 16 32 15.1046 32 14C32 12.8954 32.8954 12 34 12H41C42.1046 12 43 12.8954 43 14C43 15.1046 42.1046 16 41 16H34ZM32 22C32 23.1046 32.8954 24 34 24H41C42.1046 24 43 23.1046 43 22C43 20.8954 42.1046 20 41 20H34C32.8954 20 32 20.8954 32 22ZM34 32C32.8954 32 32 31.1046 32 30C32 28.8954 32.8954 28 34 28H41C42.1046 28 43 28.8954 43 30C43 31.1046 42.1046 32 41 32H34Z"
      fill="currentColor"/>
</svg>
