<svg width="50" height="50" viewBox="0 0 50 50" fill="none" xmlns="http://www.w3.org/2000/svg">
<path fill-rule="evenodd" clip-rule="evenodd" d="M40 5H24L24 45H40C42.7614 45 45 42.7614 45 40V10C45 7.23858 42.7614 5 40 5ZM10 5H20L20 45H10C7.23858 45 5 42.7614 5 40V10C5 7.23858 7.23858 5 10 5ZM10 0C4.47715 0 0 4.47715 0 10V40C0 45.5228 4.47715 50 10 50H40C45.5228 50 50 45.5228 50 40V10C50 4.47715 45.5228 0 40 0H10ZM16 16C17.1046 16 18 15.1046 18 14C18 12.8954 17.1046 12 16 12H9C7.89543 12 7 12.8954 7 14C7 15.1046 7.89543 16 9 16H16ZM18 22C18 23.1046 17.1046 24 16 24H9C7.89543 24 7 23.1046 7 22C7 20.8954 7.89543 20 9 20H16C17.1046 20 18 20.8954 18 22ZM16 32C17.1046 32 18 31.1046 18 30C18 28.8954 17.1046 28 16 28H9C7.89543 28 7 28.8954 7 30C7 31.1046 7.89543 32 9 32H16Z"
      fill="currentColor"/>
</svg>
